<svg width="80" height="80" fill="none" xmlns="http://www.w3.org/2000/svg"><path fill-rule="evenodd" clip-rule="evenodd" d="M11.135 51.897h54.706v-6.141H11.135v6.14zM49.01 61.11h3.033v2.715h-27.11V61.11h3.032a.91.91 0 00.912-.91v-6.483h19.221V60.2c0 .503.409.91.912.91zM11.135 43.935h54.706V13.04H11.135v30.895zm-.912-32.716a.91.91 0 00-.911.91v40.678c0 .503.407.91.911.91h16.83v5.572h-3.032a.911.911 0 00-.912.91v4.536c0 .501.408.91.912.91h28.934a.912.912 0 00.912-.91V60.2a.912.912 0 00-.912-.91h-3.033v-5.573h16.83a.91.91 0 00.913-.91V12.13a.91.91 0 00-.912-.91h-56.53z" fill="#62E0D9"/><path fill-rule="evenodd" clip-rule="evenodd" d="M37.24 47.631a.912.912 0 00-.912.91.912.912 0 001.824 0 .912.912 0 00-.912-.91z" fill="#62E0D9"/><rect x="52.459" y="29.146" width="19.708" height="40.611" rx="1.262" fill="#1B2330" stroke="#62E0D9" stroke-width="1.262"/><path fill="#fff" stroke="#62E0D9" stroke-width=".455" d="M52.056 33.294h20.515v.455H52.056zM52.056 62.424h20.515v.455H52.056z"/><path clip-rule="evenodd" d="M61.858 66.748a.911.911 0 10.001-1.822.911.911 0 00-.001 1.822z" stroke="#62E0D9" stroke-width=".777"/><path fill-rule="evenodd" clip-rule="evenodd" d="M44.154 23.053h-.152l-4.027 1.593-4.559-1.593-4.254 1.441c-.152.076-.304.152-.304.38v11.454c0 .228.151.38.38.38h.151l4.027-1.594 4.56 1.594 4.254-1.442c.152-.076.304-.227.304-.38V23.433c0-.227-.152-.38-.38-.38zm-4.179 11.379l-4.559-1.536V24.19l4.56 1.536v8.705z" fill="#62E0D9"/><path fill-rule="evenodd" clip-rule="evenodd" d="M32.681 23.053c-1.016 0-1.823.705-1.823 1.593 0 1.183 1.823 2.958 1.823 2.958s1.824-1.775 1.824-2.958c0-.888-.808-1.593-1.824-1.593zm0 2.276c-.393 0-.701-.279-.701-.633s.308-.632.701-.632c.393 0 .701.279.701.633s-.308.632-.7.632z" fill="#fff"/></svg>