<svg width="24" height="24" fill="none" xmlns="http://www.w3.org/2000/svg"><path fill-rule="evenodd" clip-rule="evenodd" d="M18.278 15.028a8.179 8.179 0 01-2.6-.434c-.217-.072-.506 0-.722.145l-1.59 1.589c-2.022-1.011-3.683-2.745-4.766-4.767l1.589-1.589c.217-.216.289-.505.144-.722a9.716 9.716 0 01-.36-2.528c0-.433-.29-.722-.723-.722H6.722C6.29 6 6 6.289 6 6.722A12.267 12.267 0 0018.278 19c.433 0 .722-.289.722-.722V15.75c0-.433-.289-.722-.722-.722zm-.722-2.528H19C19 8.889 16.111 6 12.5 6v1.444a5.024 5.024 0 015.056 5.056zm-2.89 0h1.445A3.576 3.576 0 0012.5 8.889v1.444c1.228 0 2.167.94 2.167 2.167z" fill="#fff"/></svg>