<svg width="80" height="80" fill="none" xmlns="http://www.w3.org/2000/svg"><path d="M53.566 18.232l-.354.353.354-.354zm3.315 3.308l-.353.354.353-.354zm0 .707l.353.354-.353-.354zM34.227 44.862l-.353-.353.353.353zm-4.02 0l-.381-.323a.5.5 0 00.027.677l.354-.354zM20.145 34.819l.354-.354-.354.354zm10.061 10.044l-.353.354a.5.5 0 00.734-.03l-.38-.324zM20.146 34.11l.353.353-.354-.353zm3.313-3.308l-.353-.354.353.353zm.707 0l.353-.354-.353.353zm8.05 8.036l-.353.354a.5.5 0 00.706 0l-.353-.354zm.353 1.06l-.353-.353.353.354zm20.643-20.607l.354-.354a.5.5 0 00-.707 0l.353.354zM31.863 39.9l.353-.354-.353.354zm-8.05-8.037l.353-.354a.5.5 0 00-.707 0l.353.354zm-2.607 2.601l-.353-.353a.5.5 0 000 .707l.353-.354zm9.707 9.69l-.353.355.353-.354zm.001.001l.354-.353h-.001l-.353.353zm2.607 0l-.354-.354.354.354zM55.82 21.894l.353.353a.5.5 0 000-.707l-.353.354zm-5.426-.438l.368-.34-.368.34zm.031.037l.399-.302-.399.302zm2.844 3.751l.398-.302-.398.302zm.027.04l.426-.261-.426.261zm-.839.545l.426-.262a.51.51 0 00-.028-.04l-.398.302zm-2.814-3.712l.399-.302a.513.513 0 00-.032-.038l-.367.34zm-2.58 2.636l.37-.336-.37.336zm.038.048l-.408.288.408-.288zm2.744 3.88l-.409.289.409-.289zm.032.052l.44-.237-.44.237zm-.867.5l.441-.236a.5.5 0 00-.032-.052l-.409.288zm-2.708-3.83l.409-.289a.493.493 0 00-.039-.048l-.37.337zm-12.305-3.605a1 1 0 00-1-1v1h1zm0 1.56v-1.56h-1v1.56h1zm-1 1a1 1 0 001-1h-1v1zm-1-1a1 1 0 001 1v-1h-1zm0-1.56v1.56h1v-1.56h-1zm1-1a1 1 0 00-1 1h1v-1zm1 32.194a1 1 0 00-1-1v1h1zm0 1.56v-1.56h-1v1.56h1zm-1 1a1 1 0 001-1h-1v1zm-1-1a1 1 0 001 1v-1h-1zm0-1.56v1.56h1v-1.56h-1zm1-1a1 1 0 00-1 1h1v-1zm14.061-14.037a1 1 0 00-1 1h1v-1zm1.563 0h-1.563v1h1.563v-1zm1 1a1 1 0 00-1-1v1h1zm-1 1a1 1 0 001-1h-1v1zm-1.563 0h1.563v-1h-1.563v1zm-1-1a1 1 0 001 1v-1h-1zm-30.246-1a1 1 0 00-1 1h1v-1zm1.562 0h-1.562v1h1.562v-1zm1 1a1 1 0 00-1-1v1h1zm-1 1a1 1 0 001-1h-1v1zm-1.562 0h1.562v-1h-1.562v1zm-1-1a1 1 0 001 1v-1h-1zm39.107-21.077a1 1 0 00-1.413 0l.706.707.707-.707zm3.315 3.308l-3.315-3.308-.706.707 3.315 3.308.706-.707zm.294.707a1 1 0 00-.294-.707l-.706.707h1zm-.294.708a1 1 0 00.294-.708h-1l.706.708zM34.58 45.216l22.654-22.615-.706-.707-22.654 22.615.706.707zm-2.364.977c.853 0 1.71-.324 2.364-.977l-.706-.707a2.339 2.339 0 01-1.658.684v1zm-2.363-.977c.653.653 1.511.977 2.363.977v-1c-.6 0-1.2-.227-1.655-.684l-.708.707zm.735-.03l22.652-26.63-.762-.648-22.652 26.63.762.649zM19.792 35.172l10.061 10.044.706-.708L20.5 34.464l-.707.708zm-.293-.708a1 1 0 00.293.708l.707-.708h-1zm.293-.707a1 1 0 00-.293.707h1l-.707-.707zm3.314-3.308l-3.314 3.308.707.707 3.313-3.308-.706-.707zm1.413 0a1 1 0 00-1.413 0l.706.707.707-.707zm8.05 8.037l-8.05-8.037-.707.707 8.051 8.037.706-.707zm19.937-20.608L31.863 38.486l.706.707 20.643-20.608-.706-.707zm-.028.03l-22.653 26.63.762.648 22.653-26.63-.762-.648zM32.923 40.254l20.643-20.608-.707-.708-20.643 20.608.707.708zm-1.413 0a1 1 0 001.413 0l-.707-.708-.706.708zm-8.05-8.037l8.05 8.037.706-.708-8.05-8.037-.707.708zm-1.9 2.601l2.606-2.601-.707-.708-2.606 2.602.707.707zm9.707 8.983l-9.707-9.69-.707.707 9.707 9.69.707-.707zm0 0l-.707.708h.001l.706-.708zm.95.392c-.348 0-.69-.13-.95-.39l-.707.706a2.332 2.332 0 001.656.684v-1zm.95-.392a1.338 1.338 0 01-.95.392v1c.6 0 1.2-.227 1.657-.684l-.707-.708zm22.3-22.261L33.167 43.8l.707.708 22.3-22.262-.707-.707zm-2.608-1.894l2.608 2.601.706-.707-2.607-2.602-.707.708zM32.216 13C18.292 13 7 24.27 7 38.175h1C8 24.825 18.843 14 32.216 14v-1zm18.546 8.117A25.168 25.168 0 0032.216 13v1a24.169 24.169 0 0117.81 7.795l.736-.678zm.062.074a.972.972 0 00-.062-.074l-.735.678.797-.604zm2.843 3.751l-2.843-3.75-.797.603 2.843 3.751.797-.604zm.055.08a.947.947 0 00-.055-.08l-.797.604.852-.524zm3.71 13.153c0-4.82-1.357-9.325-3.71-13.152l-.852.523c2.26 3.675 3.562 8 3.562 12.629h1zM32.216 63.35c13.925 0 25.216-11.27 25.216-25.175h-1c0 13.35-10.842 24.175-24.216 24.175v1zM7 38.175C7 52.08 18.292 63.35 32.216 63.35v-1C18.843 62.35 8 51.526 8 38.175H7zm2 0C9 25.378 19.393 15 32.216 15v-1C18.843 14 8 24.824 8 38.175h1zM32.216 61.35C19.393 61.35 9 50.972 9 38.175H8C8 51.525 18.843 62.35 32.216 62.35v-1zm23.216-23.175c0 12.797-10.393 23.175-23.216 23.175v1c13.374 0 24.216-10.824 24.216-24.175h-1zM52.031 26.09a23.033 23.033 0 013.401 12.085h1c0-4.62-1.298-8.938-3.549-12.608l-.852.523zm-2.786-3.671l2.814 3.712.797-.604-2.814-3.712-.797.604zM32.216 15c6.746 0 12.818 2.87 17.06 7.456l.734-.679A24.168 24.168 0 0032.216 14v1zm0 2.679c-11.337 0-20.529 9.174-20.529 20.496h1c0-10.768 8.743-19.496 19.53-19.496v-1zm15.217 6.738a20.497 20.497 0 00-15.217-6.738v1c5.74 0 10.904 2.474 14.477 6.41l.74-.672zm.076.095a.993.993 0 00-.076-.095l-.74.672.816-.577zm2.744 3.88l-2.744-3.88-.816.577 2.743 3.88.817-.577zm.064.104a.983.983 0 00-.064-.104l-.817.578.881-.474zm2.428 9.679c0-3.5-.878-6.795-2.428-9.679l-.88.474a19.387 19.387 0 012.308 9.205h1zM32.216 58.67c11.337 0 20.53-9.174 20.53-20.496h-1c0 10.768-8.743 19.496-19.53 19.496v1zM11.687 38.175c0 11.322 9.192 20.496 20.53 20.496v-1c-10.787 0-19.53-8.728-19.53-19.496h-1zm2 0c0-10.214 8.293-18.496 18.53-18.496v-1c-10.787 0-19.53 8.728-19.53 19.496h1zm18.53 18.496c-10.236 0-18.53-8.282-18.53-18.496h-1c0 10.768 8.743 19.496 19.53 19.496v-1zm18.528-18.496c0 10.214-8.293 18.496-18.529 18.496v1c10.787 0 19.53-8.728 19.53-19.496h-1zm-2.176-8.706a18.387 18.387 0 012.176 8.706h1c0-3.319-.83-6.442-2.294-9.178l-.882.472zm-2.675-3.777l2.708 3.83.817-.577-2.708-3.83-.817.577zm-13.678-6.013a18.497 18.497 0 0113.717 6.06l.739-.673a19.497 19.497 0 00-14.456-6.387v1z" fill="#62E0D9"/><path clip-rule="evenodd" d="M49.514 44.219a3.457 3.457 0 01-3.46 3.453 3.457 3.457 0 01-3.46-3.453 3.457 3.457 0 013.46-3.454c1.91 0 3.46 1.545 3.46 3.454z" stroke="#62E0D9" stroke-linejoin="round"/><path clip-rule="evenodd" d="M46.054 47.672c-1.46 0-2.779.45-3.722.888a2.57 2.57 0 00-1.467 2.333v5.413c0 .953.775 1.727 1.73 1.727v6.907c0 .953.774 1.727 1.73 1.727h3.459c.956 0 1.73-.774 1.73-1.727v-6.907c.954 0 1.73-.774 1.73-1.727v-5.413a2.57 2.57 0 00-1.468-2.333c-.943-.439-2.262-.888-3.722-.888z" stroke="#62E0D9" stroke-linecap="round" stroke-linejoin="round"/><path clip-rule="evenodd" d="M59.892 44.219a3.456 3.456 0 01-3.46 3.453 3.456 3.456 0 01-3.459-3.453 3.456 3.456 0 013.46-3.454c1.91 0 3.459 1.545 3.459 3.454z" stroke="#62E0D9" stroke-linejoin="round"/><path clip-rule="evenodd" d="M56.432 47.672c-1.46 0-2.778.45-3.722.888a2.57 2.57 0 00-1.467 2.333v5.413c0 .953.774 1.727 1.73 1.727v6.907c0 .953.775 1.727 1.73 1.727h3.46c.955 0 1.729-.774 1.729-1.727v-6.907c.956 0 1.73-.774 1.73-1.727v-5.413a2.57 2.57 0 00-1.467-2.333c-.944-.439-2.263-.888-3.723-.888z" stroke="#62E0D9" stroke-linecap="round" stroke-linejoin="round"/><path clip-rule="evenodd" d="M70.27 44.219a3.456 3.456 0 01-3.46 3.453 3.456 3.456 0 01-3.459-3.453 3.456 3.456 0 013.46-3.454c1.91 0 3.46 1.545 3.46 3.454z" stroke="#62E0D9" stroke-linejoin="round"/><path clip-rule="evenodd" d="M66.81 47.672c-1.46 0-2.778.45-3.722.888a2.57 2.57 0 00-1.466 2.333v5.413c0 .953.774 1.727 1.73 1.727v6.907c0 .953.774 1.727 1.729 1.727h3.46c.955 0 1.73-.774 1.73-1.727v-6.907c.955 0 1.729-.774 1.729-1.727v-5.413a2.57 2.57 0 00-1.467-2.333c-.943-.439-2.262-.888-3.722-.888z" stroke="#62E0D9" stroke-linecap="round" stroke-linejoin="round"/></svg>