<svg width="80" height="80" fill="none" xmlns="http://www.w3.org/2000/svg"><path clip-rule="evenodd" d="M47.464 34.232l-9.408 9.595-6.922-7.06-3.46 3.53 10.382 10.59 15.85-16.166-3.46-3.53-2.982 3.04z" stroke="#62E0D9" stroke-width="2.357"/><path clip-rule="evenodd" d="M57.628 14.5c-4.11 0-8.195-.874-11.91-2.68-1.779-.857-3.599-1.949-5.172-3.31-1.573 1.361-3.393 2.454-5.173 3.31-3.713 1.806-7.799 2.68-11.908 2.68h-8.146v31.223c0 5.469 2.166 10.727 6.02 14.533 5.659 5.577 19.207 12.826 19.207 12.826s13.549-7.249 19.207-12.826c3.854-3.806 6.02-9.064 6.02-14.533V14.5h-8.145z" stroke="#62E0D9" stroke-width="2.357"/><path clip-rule="evenodd" d="M59.185 25.794v20.191c0 3.648-1.464 7.186-4.015 9.704-3.548 3.498-11.637 8.284-14.623 10-2.99-1.717-11.085-6.51-14.629-10.002-2.549-2.518-4.01-6.054-4.01-9.702V21.482h1.557c5.159 0 10.257-1.152 14.743-3.333.805-.387 1.59-.803 2.34-1.238a35.03 35.03 0 002.355 1.248c4.474 2.174 9.565 3.323 14.725 3.323h1.557v4.312z" stroke="#62E0D9" stroke-width="2.357"/></svg>