<svg width="80" height="80" fill="none" xmlns="http://www.w3.org/2000/svg"><path d="M71.813 20.348l.54.015-.54-.015zm-.979 40.798l-.387.377.387-.377zm-.152-.392l.54.015-.54-.015zm1.097-.575l-.54-.015a.54.54 0 00.637.546l-.097-.531zm1.097-39.202l.152-.519a.54.54 0 00-.692.504l.54.015zm-20.203-5.123l-.45-.3.45.3zm-4.098 6.133v.54a.54.54 0 00.449-.24l-.45-.3zM68.592 60.23v.54a.54.54 0 00.38-.924l-.38.384zM53.411 16.694v-.54a.54.54 0 00-.45.24l.45.3zm-4.098 6.134l-.45-.3.45.3zm23.04-3.546a1.08 1.08 0 00-1.08 1.05l1.08.03v-1.08zm3.343 3.207c0-1.834-1.563-3.207-3.343-3.207v1.08c1.25 0 2.262.955 2.262 2.128h1.081zm0 35.09V22.49h-1.08v35.09h1.08zm-4.474 4.27c2.406 0 4.474-1.848 4.474-4.27h-1.08c0 1.76-1.519 3.19-3.394 3.19v1.08zm-.775-.326c.203.209.483.327.775.327v-1.08l-.775.753zm-.306-.784a1.08 1.08 0 00.306.784l.775-.754-1.08-.03zm1.132-40.406L70.14 60.739l1.08.03 1.132-40.406-1.08-.03zm1.046 39.861l1.097-39.202-1.08-.03-1.097 39.202 1.08.03zm1.216-2.615c0 .975-.754 1.868-1.853 2.068l.194 1.063c1.56-.284 2.74-1.582 2.74-3.13h-1.081zm0-35.09v35.09h1.08V22.49h-1.08zm-.81-.993c.503.147.81.57.81.994h1.08c0-.95-.67-1.763-1.587-2.032l-.303 1.038zm-19.603-6.423c-.36 0-.698.18-.898.48l.898.6v-1.08zm12.776 0H53.122v1.08h12.776v-1.08zm3.21 3.205a3.208 3.208 0 00-3.21-3.205v1.08c1.176 0 2.13.953 2.13 2.125h1.08zm0 39.304V18.278h-1.08v39.304h1.08zm2.114 2.106a2.11 2.11 0 01-2.114-2.106h-1.08a3.19 3.19 0 003.194 3.187v-1.08zm1.08 1.081a1.08 1.08 0 00-1.08-1.08v1.08h1.08zm-1.08 1.08a1.08 1.08 0 001.08-1.08h-1.08v1.08zm-48.975 0h48.975v-1.08H22.247v1.08zm-6.405-6.391c0 3.532 2.87 6.392 6.405 6.392v-1.08a5.317 5.317 0 01-5.324-5.312h-1.08zm0-30.806v30.806h1.081V24.652h-1.08zm3.21-3.205a3.208 3.208 0 00-3.21 3.205h1.081c0-1.173.954-2.125 2.13-2.125v-1.08zm29.523 0H19.052v1.08h29.523v-1.08zm3.649-5.894l-4.099 6.134.899.6 4.098-6.133-.898-.6zm14.723 42.03c0 1.185.485 2.258 1.265 3.03l.76-.768a3.171 3.171 0 01-.944-2.263h-1.081zm0-39.305v39.304h1.08V18.278h-1.08zm-1.049-1.043c.581 0 1.049.47 1.049 1.043h1.08a2.128 2.128 0 00-2.129-2.124v1.08zm-12.487 0h12.487v-1.081H53.411v1.08zm-3.649 5.893l4.098-6.134-.898-.6-4.099 6.133.899.6zm-.898.48c.36 0 .698-.18.898-.48l-.898-.6v1.08zm-29.811 0h29.81v-1.08h-29.81v1.08zm-1.05 1.044c0-.574.469-1.044 1.05-1.044v-1.08c-1.176 0-2.13.951-2.13 2.124h1.08zm0 30.806V24.652h-1.08v30.806h1.08zm4.244 4.23a4.237 4.237 0 01-4.243-4.23h-1.08a5.317 5.317 0 005.323 5.311v-1.08zm46.345 0H22.246v1.081h46.346v-1.08z" fill="#62E0D9"/><path fill-rule="evenodd" clip-rule="evenodd" d="M37.139 36.585v2.463c0 .816.647 1.477 1.445 1.477h2.408m1.927 0v-.169c0-.522-.203-1.024-.564-1.393l-3.688-3.77a1.907 1.907 0 00-1.363-.578H26.542c-1.064 0-1.927.882-1.927 1.97V57.27c0 1.088.863 1.97 1.927 1.97h14.45c1.064 0 1.927-.882 1.927-1.97v-6.895" fill="#62E0D9"/><path d="M40.731 43.757l.221-.216-.22.216zm2.89 2.955l-.22.216.22-.216zm0 .432l-.22-.216.22.216zM34.47 56.5l.221.216-.22-.216zm-3.331-3.387l-.22-.216.22.216zm9.152-9.357l-.22-.216.22.216zm-8.622 12.22h-.31c0 .17.139.308.31.308v-.309zm0-2.521l-.221-.216a.309.309 0 00-.088.216h.308zm2.45 2.52v.309a.309.309 0 00.222-.093l-.221-.216zm8.85-9.048l.221.216a.309.309 0 000-.432l-.22.216zm-2.458-2.514l.221-.216a.309.309 0 00-.441 0l.22.216zm3.287-1.702l.22-.216-.22.216zm-2.486 0l-.22-.216.22.216zm3.332.866l-.22.215.22-.215zm0 2.521l-.22-.216.22.216zm-1.022 1.045l.221.215-.22-.215zm-.441 0l-.22.215.22-.215zm-2.89-2.955l.22-.216-.22.216zm0-.432l.22.216-.22-.216zm1.463-.613l-.22-.216.22.216zm1.602 0l.22-.216-.22.216zm-2.413.829l-.22-.216a.309.309 0 000 .432l.22-.216zm2.459 2.513l-.221.216a.309.309 0 00.441 0l-.22-.216zm.8-.819l.221.216-.22-.216zm0-1.658l.221-.216-.22.216zm-3.249-.468a.617.617 0 00-.441-.186v.618l.441-.432zm2.89 2.955l-2.89-2.955-.441.432 2.89 2.955.441-.432zm0 .863a.618.618 0 000-.863l-.441.432.441.431zm-9.152 9.358l9.152-9.358-.441-.431-9.152 9.357.441.432zm-.441.186a.617.617 0 00.441-.186l-.441-.432v.618zm-2.89 0h2.89v-.618h-2.89v.618zm-.618-.618c0 .341.277.618.618.618v-.618h-.618zm0-2.955v2.955h.618V53.33h-.618zm.176-.432a.617.617 0 00-.176.432h.618l-.442-.432zm9.152-9.357l-9.152 9.357.442.432 9.151-9.357-.44-.432zm.441-.186a.617.617 0 00-.44.186l.44.432v-.618zm-8.534 12.621v-2.52h-.617v2.52h.617zm2.143-.309h-2.451v.618h2.45v-.617zm8.629-8.955l-8.85 9.048.442.432 8.85-9.048-.442-.432zM40.29 44.63l2.458 2.514.441-.432-2.458-2.514-.441.432zm-8.402 9.042l8.843-9.042-.441-.432-8.843 9.042.441.432zm12.13-11.176a2.04 2.04 0 00-2.927 0l.441.432a1.422 1.422 0 012.044 0l.441-.432zm.846.866l-.847-.866-.441.432.846.865.442-.431zm0 2.953c.799-.817.799-2.136 0-2.953l-.442.431a1.501 1.501 0 010 2.09l.442.432zm-1.022 1.044l1.022-1.044-.442-.432-1.021 1.045.441.431zm-.441.186a.618.618 0 00.441-.186l-.441-.431v.617zm-.442-.186a.618.618 0 00.442.186v-.617l-.442.431zm-2.89-2.955l2.89 2.955.442-.431-2.89-2.955-.442.431zm0-.863a.617.617 0 000 .864l.441-.432-.44-.432zm1.022-1.045l-1.022 1.045.441.432 1.022-1.045-.441-.432zm.883.864a.805.805 0 011.16 0l.442-.432a1.422 1.422 0 00-2.044 0l.442.432zm-.81.829l.81-.83-.442-.43-.81.828.441.432zm2.457 2.081l-2.458-2.513-.441.432 2.458 2.513.441-.432zm.36-.819l-.801.82.441.431.801-.819-.441-.432zm0-1.226c.33.337.33.89 0 1.226l.441.432a1.501 1.501 0 000-2.09l-.441.432zm-.847-.865l.847.865.441-.432-.846-.865-.442.432z" fill="#fff"/><path d="M28.469 43.848a.618.618 0 00-.618.617h.618v-.617zm9.633 0H28.47v.617h9.633v-.617zm.618.617a.617.617 0 00-.618-.617v.617h.618zm-.618.618a.617.617 0 00.618-.618h-.618v.618zm-9.633 0h9.633v-.618H28.47v.618zm-.618-.618c0 .341.277.618.618.618v-.618h-.618zm.618 2.338a.618.618 0 00-.618.617h.618v-.617zm8.67 0h-8.67v.617h8.67v-.617zm.617.617a.618.618 0 00-.617-.617v.617h.617zm-.617.618a.618.618 0 00.617-.618h-.617v.618zm-8.67 0h8.67v-.618h-8.67v.618zm-.618-.618c0 .341.277.618.618.618v-.618h-.618zm.618 2.338a.618.618 0 00-.618.617h.618v-.617zm5.78 0h-5.78v.617h5.78v-.617zm.617.617a.617.617 0 00-.617-.617v.617h.617zm-.617.618a.617.617 0 00.617-.618h-.617v.618zm-5.78 0h5.78v-.618h-5.78v.618zm-.618-.618c0 .341.277.618.618.618v-.618h-.618z" fill="#fff"/><path fill-rule="evenodd" clip-rule="evenodd" d="M30.282 61.102a2.758 2.758 0 01-2.766 2.747H8.15a2.758 2.758 0 01-2.766-2.747V47.363a2.758 2.758 0 012.766-2.748h19.365a2.758 2.758 0 012.766 2.748v13.739zm-16.598-11.45a2.298 2.298 0 01-2.305 2.29 2.298 2.298 0 01-2.306-2.29 2.298 2.298 0 012.306-2.289 2.298 2.298 0 012.305 2.29z" fill="#62E0D9"/><path d="M25.99 60.504l-5.423-5.734-2.26 2.39-3.162-3.346-6.326 6.69" stroke="#fff" stroke-width=".5" stroke-linecap="round" stroke-linejoin="round"/></svg>